<?xml version="1.0" standalone="no"?>
<!DOCTYPE svg PUBLIC "-//W3C//DTD SVG 20010904//EN"
 "http://www.w3.org/TR/2001/REC-SVG-20010904/DTD/svg10.dtd">
<svg version="1.0" xmlns="http://www.w3.org/2000/svg"
 width="2048.000000pt" height="2048.000000pt" viewBox="0 0 2048.000000 2048.000000"
 preserveAspectRatio="xMidYMid meet">
<metadata>
Created by potrace 1.11, written by Peter Selinger 2001-2013
</metadata>
<g transform="translate(0.000000,2048.000000) scale(0.100000,-0.100000)"
fill="#000000" stroke="none">
<path d="M2830 10400 l0 -5180 695 0 695 0 0 1904 0 1904 933 5 c571 3 976 9
1047 16 550 54 911 148 1305 341 430 210 739 457 1009 804 372 477 586 1031
673 1736 22 182 25 693 4 870 -63 559 -215 1006 -474 1395 -498 748 -1317
1211 -2382 1344 -310 39 -414 41 -1979 41 l-1526 0 0 -5180z m3260 3840 c274
-25 497 -83 705 -184 603 -293 942 -802 1016 -1521 55 -544 -162 -1194 -532
-1589 -227 -243 -579 -441 -914 -515 -254 -56 -230 -55 -1222 -58 l-923 -4 0
1940 0 1941 878 0 c523 0 923 -4 992 -10z"/>
<path d="M11360 10400 l0 -5180 1618 0 c1844 0 1898 2 2330 75 1303 223 2208
960 2480 2020 64 248 92 489 92 790 0 431 -67 748 -230 1080 -124 254 -256
433 -484 660 -305 302 -689 549 -1129 725 -32 12 -55 26 -50 31 4 4 42 26 83
50 567 318 981 813 1175 1404 86 259 124 497 132 815 26 1022 -322 1744 -1052
2182 -392 235 -832 385 -1370 467 -362 56 -318 54 -2017 58 l-1578 4 0 -5181z
m3194 3821 c390 -62 698 -186 934 -376 237 -191 381 -467 439 -840 21 -137 23
-467 4 -605 -53 -378 -204 -706 -434 -947 -228 -238 -532 -365 -967 -403 -65
-5 -475 -10 -947 -10 l-833 0 0 1606 0 1605 833 -4 c802 -3 837 -4 971 -26z
m-42 -4521 c529 -35 1014 -176 1333 -388 101 -67 235 -181 309 -263 153 -169
253 -395 292 -661 23 -158 15 -491 -15 -630 -57 -260 -163 -465 -339 -650
-304 -319 -706 -493 -1342 -579 -57 -8 -395 -13 -1042 -16 l-958 -4 0 1600 0
1601 804 0 c443 0 873 -5 958 -10z"/>
</g>
</svg>
