<svg version="1.1" id="Layer_1" xmlns="http://www.w3.org/2000/svg" xmlns:xlink="http://www.w3.org/1999/xlink" x="0px" y="0px"
	 viewBox="0 0 278 52">
<g>
	<path d="M22,12.7c1.9,0,3.5,0.3,4.9,1c1.3,0.6,2.4,1.6,3.1,2.8c0.7,1.2,1.1,2.7,1.1,4.4c0,1-0.2,2-0.5,3c-0.3,1-0.8,1.9-1.5,2.7
		c-0.7,0.8-1.6,1.4-2.7,1.9c-1.1,0.5-2.4,0.7-4,0.7h-3.9v9.6H15v-26H22z M22.3,25.8c1,0,1.9-0.2,2.6-0.5c0.7-0.3,1.2-0.8,1.6-1.3
		c0.4-0.5,0.7-1.1,0.8-1.6c0.2-0.6,0.3-1.1,0.3-1.5c0-0.5-0.1-1.1-0.3-1.6c-0.2-0.6-0.5-1.1-0.8-1.5c-0.4-0.5-0.9-0.9-1.5-1.2
		c-0.6-0.3-1.4-0.5-2.4-0.5h-4v9.8H22.3z"/>
	<path d="M31.4,38.7l11.4-27.1H43l11.3,27.1h-4L41.8,17l2.5-1.6l-9.5,23.3H31.4z M38,28.8h9.7l1.2,3H37L38,28.8z"/>
	<path d="M61.8,29.5c0,1.2,0.3,2.2,0.8,3.1c0.6,0.9,1.3,1.7,2.2,2.2c0.9,0.5,2,0.8,3.2,0.8c1.2,0,2.3-0.3,3.3-0.8
		c1-0.5,1.7-1.3,2.3-2.2c0.6-0.9,0.8-2,0.8-3.1V12.7h3.4v16.9c0,1.9-0.4,3.6-1.3,5c-0.9,1.4-2.1,2.5-3.5,3.3S69.8,39,68,39
		c-1.8,0-3.5-0.4-4.9-1.2c-1.5-0.8-2.6-1.9-3.5-3.3c-0.9-1.4-1.3-3.1-1.3-5V12.7h3.5V29.5z"/>
	<path d="M84.9,12.7h3.5v22.7h13.2v3.3H84.9V12.7z"/>
	<path d="M125.4,12.7c2.6,0,4.7,0.5,6.2,1.6s2.2,2.7,2.2,5c0,1.4-0.3,2.6-0.9,3.6c-0.6,1-1.5,1.8-2.6,2.4c-1.1,0.6-2.4,0.9-3.9,1
		l-0.5-1.8c1.8,0,3.3,0.4,4.7,0.9c1.4,0.6,2.5,1.4,3.3,2.4c0.8,1,1.2,2.3,1.2,3.7c0,1.3-0.2,2.4-0.7,3.3c-0.5,0.9-1.1,1.7-1.9,2.3
		c-0.8,0.6-1.7,1-2.8,1.3c-1,0.3-2.1,0.4-3.2,0.4h-7.7v-26H125.4z M126.1,24.1c1.4,0,2.5-0.4,3.1-1.2s1-1.8,1-2.9
		c0-1.4-0.4-2.4-1.3-3c-0.8-0.6-2-0.9-3.4-0.9h-3.4v8.1H126.1z M126.3,35.4c1,0,1.8-0.1,2.6-0.4c0.8-0.3,1.4-0.7,1.9-1.3
		c0.5-0.6,0.7-1.4,0.7-2.3c0-1-0.3-1.8-0.8-2.4s-1.2-1-2.1-1.2c-0.8-0.3-1.7-0.4-2.6-0.4h-3.9v8H126.3z"/>
	<path d="M141,12.7h3.5v22.7h13.2v3.3H141V12.7z"/>
	<path d="M160.8,38.7l11.4-27.1h0.2l11.3,27.1h-4L171.2,17l2.5-1.6l-9.5,23.3H160.8z M167.4,28.8h9.7l1.2,3h-11.8L167.4,28.8z"/>
	<path d="M211.1,39.5L191,19.1l1,0.3l0.1,19.3h-3.5V11.9h0.2l19.9,20.5l-0.8-0.2l-0.1-19.5h3.5v26.9H211.1z"/>
	<path d="M237.8,36.7c-0.4,0.3-1,0.6-1.8,1c-0.7,0.4-1.6,0.7-2.6,0.9c-1,0.2-2.1,0.4-3.3,0.4c-2,0-3.8-0.4-5.5-1.1
		c-1.6-0.7-3-1.6-4.1-2.8c-1.1-1.2-2-2.6-2.6-4.2c-0.6-1.6-0.9-3.2-0.9-5c0-1.9,0.3-3.7,1-5.4c0.6-1.6,1.5-3.1,2.7-4.3
		c1.2-1.2,2.5-2.2,4.1-2.8c1.6-0.7,3.3-1,5.2-1c1.6,0,3,0.2,4.2,0.6c1.3,0.4,2.4,0.9,3.3,1.5l-1.4,3.2c-0.7-0.5-1.6-0.9-2.6-1.4
		c-1-0.4-2.2-0.6-3.4-0.6c-1.3,0-2.5,0.3-3.6,0.8s-2.1,1.2-3,2.1s-1.5,2-2,3.2c-0.5,1.2-0.7,2.5-0.7,3.9c0,1.4,0.2,2.7,0.7,3.9
		c0.4,1.2,1.1,2.3,1.9,3.2c0.8,0.9,1.8,1.6,3,2.1s2.5,0.8,4,0.8c1.3,0,2.5-0.2,3.5-0.6c1-0.4,1.9-0.9,2.6-1.4L237.8,36.7z"/>
	<path d="M241.1,38.7l11.4-27.1h0.2L264,38.7h-4L251.6,17l2.5-1.6l-9.5,23.3H241.1z M247.8,28.8h9.7l1.2,3h-11.8L247.8,28.8z"/>
</g>
</svg>
