<svg xmlns="http://www.w3.org/2000/svg" viewBox="14 0 278 52"><path d="M22 12.7c1.9 0 3.5.3 4.9 1 1.3.6 2.4 1.6 3.1 2.8.7 1.2 1.1 2.7 1.1 4.4 0 1-.2 2-.5 3s-.8 1.9-1.5 2.7c-.7.8-1.6 1.4-2.7 1.9s-2.4.7-4 .7h-3.9v9.6H15v-26h7zm.3 13.1c1 0 1.9-.2 2.6-.5.7-.3 1.2-.8 1.6-1.3.4-.5.7-1.1.8-1.6.2-.6.3-1.1.3-1.5 0-.5-.1-1.1-.3-1.6-.2-.6-.5-1.1-.8-1.5-.4-.5-.9-.9-1.5-1.2-.6-.3-1.4-.5-2.4-.5h-4v9.8h3.7zM31.4 38.7l11.4-27.1h.2l11.3 27.1h-4L41.8 17l2.5-1.6-9.5 23.3h-3.4zm6.6-9.9h9.7l1.2 3H37l1-3zM61.8 29.5c0 1.2.3 2.2.8 3.1.6.9 1.3 1.7 2.2 2.2.9.5 2 .8 3.2.8 1.2 0 2.3-.3 3.3-.8s1.7-1.3 2.3-2.2c.6-.9.8-2 .8-3.1V12.7h3.4v16.9c0 1.9-.4 3.6-1.3 5s-2.1 2.5-3.5 3.3-3.2 1.1-5 1.1c-1.8 0-3.5-.4-4.9-1.2-1.5-.8-2.6-1.9-3.5-3.3-.9-1.4-1.3-3.1-1.3-5V12.7h3.5v16.8zM84.9 12.7h3.5v22.7h13.2v3.3H84.9v-26zM125.4 12.7c2.6 0 4.7.5 6.2 1.6s2.2 2.7 2.2 5c0 1.4-.3 2.6-.9 3.6-.6 1-1.5 1.8-2.6 2.4-1.1.6-2.4.9-3.9 1l-.5-1.8c1.8 0 3.3.4 4.7.9 1.4.6 2.5 1.4 3.3 2.4.8 1 1.2 2.3 1.2 3.7 0 1.3-.2 2.4-.7 3.3-.5.9-1.1 1.7-1.9 2.3-.8.6-1.7 1-2.8 1.3-1 .3-2.1.4-3.2.4h-7.7v-26h6.6zm.7 11.4c1.4 0 2.5-.4 3.1-1.2s1-1.8 1-2.9c0-1.4-.4-2.4-1.3-3-.8-.6-2-.9-3.4-.9h-3.4v8.1h4zm.2 11.3c1 0 1.8-.1 2.6-.4.8-.3 1.4-.7 1.9-1.3.5-.6.7-1.4.7-2.3 0-1-.3-1.8-.8-2.4s-1.2-1-2.1-1.2c-.8-.3-1.7-.4-2.6-.4h-3.9v8h4.2zM141 12.7h3.5v22.7h13.2v3.3H141v-26zM160.8 38.7l11.4-27.1h.2l11.3 27.1h-4L171.2 17l2.5-1.6-9.5 23.3h-3.4zm6.6-9.9h9.7l1.2 3h-11.8l.9-3zM211.1 39.5L191 19.1l1 .3.1 19.3h-3.5V11.9h.2l19.9 20.5-.8-.2-.1-19.5h3.5v26.9h-.2zM237.8 36.7c-.4.3-1 .6-1.8 1-.7.4-1.6.7-2.6.9-1 .2-2.1.4-3.3.4-2 0-3.8-.4-5.5-1.1-1.6-.7-3-1.6-4.1-2.8-1.1-1.2-2-2.6-2.6-4.2-.6-1.6-.9-3.2-.9-5 0-1.9.3-3.7 1-5.4.6-1.6 1.5-3.1 2.7-4.3 1.2-1.2 2.5-2.2 4.1-2.8 1.6-.7 3.3-1 5.2-1 1.6 0 3 .2 4.2.6 1.3.4 2.4.9 3.3 1.5l-1.4 3.2c-.7-.5-1.6-.9-2.6-1.4-1-.4-2.2-.6-3.4-.6-1.3 0-2.5.3-3.6.8s-2.1 1.2-3 2.1-1.5 2-2 3.2c-.5 1.2-.7 2.5-.7 3.9s.2 2.7.7 3.9c.4 1.2 1.1 2.3 1.9 3.2.8.9 1.8 1.6 3 2.1s2.5.8 4 .8c1.3 0 2.5-.2 3.5-.6 1-.4 1.9-.9 2.6-1.4l1.3 3zM241.1 38.7l11.4-27.1h.2L264 38.7h-4L251.6 17l2.5-1.6-9.5 23.3h-3.5zm6.7-9.9h9.7l1.2 3h-11.8l.9-3z"/></svg>
